# Blender v2.76 (sub 0) OBJ File: 'model-simplified.blend'
# www.blender.org
mtllib x-wingWindow.mtl
o WX_canopy
v 0.015602 0.038820 0.090332
v -0.015894 0.038820 0.090332
v -0.011957 0.028472 0.148910
v 0.011665 0.028472 0.148910
v -0.020022 0.036343 0.088942
v -0.025672 0.022899 0.088953
v -0.016477 0.028444 0.137121
v -0.017339 0.026085 0.137124
v 0.016194 0.028444 0.137120
v 0.017162 0.026085 0.137124
v 0.019686 0.036343 0.088942
v 0.025376 0.022899 0.088953
v 0.017570 0.033818 0.069474
v 0.024263 0.024763 0.084434
v 0.017177 0.037362 0.072229
v 0.019539 0.037362 0.084434
v -0.024556 0.024763 0.084434
v -0.017469 0.037362 0.072229
v -0.019831 0.037362 0.084434
v -0.017863 0.033818 0.069474
v 0.013633 0.038543 0.068686
v -0.013926 0.038543 0.068686
v 0.013240 0.036574 0.064355
v -0.013532 0.036574 0.064355
v -0.019042 0.039514 0.086402
v 0.018668 0.039514 0.086402
v -0.014319 0.026996 0.157265
v -0.026813 0.020439 0.086401
v -0.020022 0.036343 0.088942
v -0.025672 0.022899 0.088952
v -0.016477 0.028444 0.137121
v -0.016972 0.024781 0.144955
v -0.017339 0.026085 0.137124
v 0.016679 0.024781 0.144955
v 0.016194 0.028444 0.137121
v 0.017162 0.026085 0.137124
v 0.026592 0.020439 0.086401
v 0.019686 0.036343 0.088942
v 0.025376 0.022899 0.088952
v -0.019042 0.039514 0.086402
v 0.018668 0.039514 0.086402
v 0.015602 0.038820 0.090332
v -0.015894 0.038820 0.090332
v -0.014319 0.026996 0.157265
v 0.014027 0.026996 0.157265
v -0.011957 0.028472 0.148910
v 0.011665 0.028472 0.148910
v -0.026813 0.020439 0.086399
v -0.016972 0.024781 0.144955
v -0.017339 0.026085 0.137124
v 0.016679 0.024781 0.144955
v 0.017162 0.026085 0.137124
v 0.026592 0.020439 0.086399
v 0.014027 0.026996 0.157265
v 0.016650 0.024781 0.144955
v -0.014319 0.026996 0.157265
v 0.026625 0.020439 0.086399
v 0.015602 0.035394 0.061598
v -0.016869 0.024781 0.144955
v -0.026918 0.020439 0.086399
v -0.015894 0.035394 0.061598
v -0.015894 0.039521 0.070653
v 0.015602 0.039521 0.070653
v -0.019044 0.039514 0.086400
v 0.018751 0.039514 0.086400
v 0.017570 0.033818 0.069472
v 0.024263 0.024763 0.084431
v 0.017177 0.037362 0.072228
v 0.019539 0.037362 0.084432
v -0.024556 0.024763 0.084431
v -0.017469 0.037362 0.072228
v -0.019831 0.037362 0.084432
v -0.017863 0.033818 0.069472
v -0.013532 0.023188 0.130100
v 0.013240 0.023188 0.130100
v -0.015894 0.020439 0.086399
v 0.015602 0.020439 0.086399
v 0.015602 0.034798 0.062425
v -0.015894 0.034798 0.062425
v 0.015602 0.035394 0.061598
v -0.015894 0.035394 0.061598
v -0.015894 0.039521 0.070653
v 0.015602 0.039521 0.070653
v -0.019044 0.039514 0.086400
v 0.018751 0.039514 0.086400
v 0.013633 0.038543 0.068685
v -0.013926 0.038543 0.068685
v 0.013240 0.036574 0.064354
v -0.013532 0.036574 0.064354
v 0.018668 0.039514 0.086402
v 0.014027 0.026996 0.157265
v 0.016679 0.024781 0.144954
v 0.016194 0.028444 0.137120
vt 0.552241 0.797812
vt 0.525730 0.772823
vt 0.508860 0.814156
vt 0.399631 0.939089
vt 0.000000 0.000000
vt 0.405522 1.079660
vt 0.366666 0.984286
vt 0.372371 0.996584
vt 0.429134 1.017068
vt 0.400622 1.063804
vt 0.418347 1.024309
vt 0.415873 1.005996
vt 0.414035 1.012513
vt 0.584127 1.005996
vt 0.586541 1.012513
vt 0.581704 1.024309
vt 0.633691 0.984286
vt 0.594073 1.079660
vt 0.599159 1.063804
vt 0.627612 0.996584
vt 0.578740 1.076190
vt 0.421260 1.076190
vt 0.440945 1.024447
vt 0.570866 1.017068
vt 0.559055 1.024447
vt 0.633858 0.984286
vt 0.578740 1.059060
vt 0.588583 1.051181
vt 0.622047 1.005905
vt 0.578740 1.079693
vt 0.586614 1.068897
vt 0.594488 1.079660
vt 0.598425 1.068897
vt 0.366142 0.984286
vt 0.377953 1.005905
vt 0.411417 1.051181
vt 0.421260 1.079693
vt 0.413386 1.068897
vt 0.421260 1.059060
vt 0.401575 1.068897
vt 0.416388 1.005996
vt 0.433071 0.998027
vt 0.566929 0.998027
vt 0.583983 1.005996
vt 0.421260 0.984286
vt 0.578740 0.984286
vt 0.578740 1.056077
vt 0.421260 1.056077
vt 0.568898 1.074803
vt 0.431102 1.074803
vt 0.433071 1.064960
vt 0.566929 1.064960
vn 0.911900 0.390600 0.126200
vn 0.920500 0.369900 0.125600
vn 0.000000 0.984800 0.174000
vn 0.913000 0.386600 0.130100
vn -0.931800 0.340800 0.124400
vn -0.913700 0.384100 0.132700
vn 0.917500 0.376500 0.128200
vn -0.921300 0.345500 -0.178300
vn 0.921300 0.345500 -0.178300
vn -0.926800 0.289300 -0.239500
vn 0.926800 0.289300 -0.239500
vn 0.000000 0.910400 -0.413800
vn -0.924900 0.376800 0.050400
vn -0.913600 0.385600 0.129000
vn -0.914400 0.384400 0.127200
vn -0.932400 0.339400 0.124300
vn -0.911200 0.392200 0.125800
vn -0.946300 0.289000 0.144600
vn -0.934400 0.341700 0.100700
vn 0.918500 0.376900 0.119400
vn 0.918100 0.381300 0.108400
vn 0.919100 0.389100 0.062900
vn 0.908800 0.396300 0.130800
vn 0.937400 0.319500 0.138700
vn 0.000000 0.984800 0.173900
vn -0.000100 0.984800 0.174000
vn 0.000100 0.984800 0.174000
vn -0.887100 0.446700 0.116000
vn 0.905900 0.405300 0.123300
vn 0.892100 0.430600 -0.136800
vn 0.894600 0.423100 -0.144100
vn 0.922300 0.351600 -0.160200
vn 0.859600 0.369700 -0.352600
vn 0.892100 0.368300 -0.261600
vn 0.851100 0.496700 -0.170000
vn 0.866400 0.470300 -0.167700
vn 0.936300 0.351100 -0.009400
vn -0.892100 0.368300 -0.261600
vn -0.894600 0.423100 -0.144100
vn -0.851100 0.496700 -0.170000
vn -0.922300 0.351600 -0.160200
vn -0.866400 0.470300 -0.167700
vn -0.936300 0.351100 -0.009400
vn -0.892100 0.430600 -0.136800
vn -0.859600 0.369700 -0.352600
vn 0.083000 0.992700 -0.087900
vn 0.160100 0.976900 -0.141600
vn -0.000000 0.990300 -0.138800
vn -0.164100 0.976200 -0.141600
vn 0.000000 0.998000 -0.062800
vn -0.082300 0.992800 -0.087600
vn 0.000000 0.857900 0.513800
vn 0.000000 1.000000 0.000400
vn -0.037500 0.909300 -0.414400
vn 0.000000 0.895500 -0.445100
vn 0.000000 0.919300 -0.393600
vn -0.025300 0.910900 -0.411800
vn 0.025300 0.910900 -0.411800
vn 0.037500 0.909300 -0.414400
usemtl XW_SIDE
s off
f 91/1/1 92/2/1 93/3/1
f 90/4/2 91/1/2 93/3/2
usemtl BLUE_GLASS
f 1/5/3 2/5/3 4/5/3
f 4/5/3 2/5/3 3/5/3
f 12/5/4 11/5/4 10/5/4
f 7/5/5 5/5/5 8/5/5
f 8/5/6 5/5/6 6/5/6
f 10/5/7 11/5/7 9/5/7
f 19/5/8 18/5/8 17/5/8
f 15/5/9 16/5/9 14/5/9
f 17/5/10 18/5/10 20/5/10
f 14/5/11 13/5/11 15/5/11
f 22/5/12 21/5/12 24/5/12
f 24/5/12 21/5/12 23/5/12
usemtl CANOPY
f 25/6/13 28/7/13 30/8/13
f 27/9/14 25/6/14 29/10/14
f 25/6/15 30/8/15 29/10/15
f 27/9/16 29/10/16 31/11/16
f 27/9/17 31/11/17 32/12/17
f 28/7/18 33/13/18 30/8/18
f 32/12/19 31/11/19 33/13/19
f 34/14/20 36/15/20 35/16/20
f 37/17/21 26/18/21 38/19/21
f 37/17/22 38/19/22 39/20/22
f 35/16/23 38/19/23 26/18/23
f 39/20/24 36/15/24 37/17/24
f 41/18/25 40/6/25 42/21/25
f 43/22/25 42/21/25 40/6/25
f 40/6/26 44/9/26 43/22/26
f 43/22/27 44/9/27 46/23/27
f 45/24/27 41/18/27 42/21/27
f 47/25/26 45/24/26 42/21/26
f 44/9/25 45/24/25 46/23/25
f 46/23/25 45/24/25 47/25/25
f 50/13/28 48/7/28 49/12/28
f 51/14/29 53/17/29 52/15/29
f 57/26/30 58/27/30 66/28/30
f 67/29/31 57/26/31 66/28/31
f 58/27/32 63/30/32 66/28/32
f 63/30/33 68/31/33 66/28/33
f 65/32/34 57/26/34 67/29/34
f 63/30/35 65/32/35 68/31/35
f 65/32/36 69/33/36 68/31/36
f 65/32/37 67/29/37 69/33/37
f 60/34/38 64/6/38 70/35/38
f 60/34/39 70/35/39 73/36/39
f 64/6/40 62/37/40 71/38/40
f 62/37/41 61/39/41 73/36/41
f 64/6/42 71/38/42 72/40/42
f 72/40/43 70/35/43 64/6/43
f 73/36/44 61/39/44 60/34/44
f 73/36/45 71/38/45 62/37/45
f 60/34/46 59/41/46 74/42/46
f 75/43/47 54/24/47 55/44/47
f 56/9/48 75/43/48 74/42/48
f 74/42/49 59/41/49 56/9/49
f 56/9/48 54/24/48 75/43/48
f 74/42/50 76/45/50 60/34/50
f 57/26/51 75/43/51 55/44/51
f 77/46/50 75/43/50 57/26/50
f 78/47/52 77/46/52 57/26/52
f 76/45/52 77/46/52 79/48/52
f 79/48/52 60/34/52 76/45/52
f 78/47/52 79/48/52 77/46/52
f 83/30/53 82/37/53 84/6/53
f 83/30/53 84/6/53 85/32/53
f 80/27/54 86/49/54 83/30/54
f 82/37/55 86/49/55 87/50/55
f 86/49/55 82/37/55 83/30/55
f 89/51/56 88/52/56 80/27/56
f 80/27/56 81/39/56 89/51/56
f 88/52/57 86/49/57 80/27/57
f 81/39/58 87/50/58 89/51/58
f 81/39/59 82/37/59 87/50/59
